<svg xmlns="http://www.w3.org/2000/svg" width="1120" height="540" viewBox="0 0 1120 540" role="img" aria-labelledby="title desc">
  <title id="title">Bobot Adaptive - Normal</title>
  <desc id="desc">Perubahan komposisi Greedy, Heuristic, dan Carry per checkpoint.</desc>
  <defs>
    <linearGradient id="paper" x1="0" x2="1" y1="0" y2="1">
      <stop offset="0%" stop-color="#ffffff"/>
      <stop offset="100%" stop-color="#eef8ff"/>
    </linearGradient>
    <filter id="softShadow" x="-10%" y="-10%" width="120%" height="130%">
      <feDropShadow dx="0" dy="12" stdDeviation="14" flood-color="#1c468b" flood-opacity="0.13"/>
    </filter>
  </defs>
  <style>
    .bg { fill: url(#paper); }
    .title { fill: #18396f; font: 800 32px 'Segoe UI', Arial, sans-serif; }
    .subtitle { fill: #5e708e; font: 600 15px 'Segoe UI', Arial, sans-serif; }
    .axis { stroke: rgba(43, 91, 167, 0.22); stroke-width: 1; }
    .grid { stroke: rgba(43, 91, 167, 0.10); stroke-width: 1; }
    .label { fill: #31527f; font: 700 13px 'Segoe UI', Arial, sans-serif; }
    .small { fill: #5e708e; font: 600 12px 'Segoe UI', Arial, sans-serif; }
    .value { fill: #18396f; font: 800 13px 'Segoe UI', Arial, sans-serif; }
    .legend { fill: #31527f; font: 700 13px 'Segoe UI', Arial, sans-serif; }
  </style>
  <rect class="bg" width="1120" height="540" rx="22"/>
  <rect x="18" y="18" width="1084" height="504" rx="18" fill="rgba(255,255,255,0.58)" filter="url(#softShadow)"/>
  <text class="title" x="44" y="62">Bobot Adaptive - Normal</text>
  <text class="subtitle" x="44" y="88">Perubahan komposisi Greedy, Heuristic, dan Carry per checkpoint.</text>
  <line class="axis" x1="96" y1="128" x2="96" y2="428"/>
  <line class="axis" x1="96" y1="428" x2="1062" y2="428"/>
  <line class="grid" x1="96" y1="353.0" x2="1062" y2="353.0"/>
  <text class="small" x="84" y="357.0" text-anchor="end">25%</text>
  <line class="grid" x1="96" y1="278.0" x2="1062" y2="278.0"/>
  <text class="small" x="84" y="282.0" text-anchor="end">50%</text>
  <line class="grid" x1="96" y1="203.0" x2="1062" y2="203.0"/>
  <text class="small" x="84" y="207.0" text-anchor="end">75%</text>
  <line class="grid" x1="96" y1="128.0" x2="1062" y2="128.0"/>
  <text class="small" x="84" y="132.0" text-anchor="end">100%</text>
  <rect x="96.0" y="363.1" width="144.3" height="64.9" rx="6" fill="#278dff"/>
  <text class="value" x="168.2" y="399.6" text-anchor="middle">22%</text>
  <rect x="96.0" y="161.9" width="144.3" height="201.2" rx="6" fill="#35d598"/>
  <text class="value" x="168.2" y="266.5" text-anchor="middle">67%</text>
  <rect x="96.0" y="128.0" width="144.3" height="33.9" rx="6" fill="#ffc84f"/>
  <text class="label" x="168.2" y="462" text-anchor="middle">2-1</text>
  <rect x="260.3" y="363.1" width="144.3" height="64.9" rx="6" fill="#278dff"/>
  <text class="value" x="332.5" y="399.6" text-anchor="middle">22%</text>
  <rect x="260.3" y="161.9" width="144.3" height="201.2" rx="6" fill="#35d598"/>
  <text class="value" x="332.5" y="266.5" text-anchor="middle">67%</text>
  <rect x="260.3" y="128.0" width="144.3" height="33.9" rx="6" fill="#ffc84f"/>
  <text class="label" x="332.5" y="462" text-anchor="middle">2-5</text>
  <rect x="424.7" y="381.2" width="144.3" height="46.8" rx="6" fill="#278dff"/>
  <text class="value" x="496.8" y="408.6" text-anchor="middle">16%</text>
  <rect x="424.7" y="178.1" width="144.3" height="203.1" rx="6" fill="#35d598"/>
  <text class="value" x="496.8" y="283.6" text-anchor="middle">68%</text>
  <rect x="424.7" y="128.0" width="144.3" height="50.1" rx="6" fill="#ffc84f"/>
  <text class="value" x="496.8" y="157.0" text-anchor="middle">17%</text>
  <text class="label" x="496.8" y="462" text-anchor="middle">3-2</text>
  <rect x="589.0" y="381.2" width="144.3" height="46.8" rx="6" fill="#278dff"/>
  <text class="value" x="661.2" y="408.6" text-anchor="middle">16%</text>
  <rect x="589.0" y="178.1" width="144.3" height="203.1" rx="6" fill="#35d598"/>
  <text class="value" x="661.2" y="283.6" text-anchor="middle">68%</text>
  <rect x="589.0" y="128.0" width="144.3" height="50.1" rx="6" fill="#ffc84f"/>
  <text class="value" x="661.2" y="157.0" text-anchor="middle">17%</text>
  <text class="label" x="661.2" y="462" text-anchor="middle">4-1</text>
  <rect x="753.3" y="367.6" width="144.3" height="60.4" rx="6" fill="#278dff"/>
  <text class="value" x="825.5" y="401.8" text-anchor="middle">20%</text>
  <rect x="753.3" y="184.5" width="144.3" height="183.1" rx="6" fill="#35d598"/>
  <text class="value" x="825.5" y="280.1" text-anchor="middle">61%</text>
  <rect x="753.3" y="128.0" width="144.3" height="56.5" rx="6" fill="#ffc84f"/>
  <text class="value" x="825.5" y="160.3" text-anchor="middle">19%</text>
  <text class="label" x="825.5" y="462" text-anchor="middle">5-1</text>
  <rect x="917.7" y="367.2" width="144.3" height="60.8" rx="6" fill="#278dff"/>
  <text class="value" x="989.8" y="401.6" text-anchor="middle">20%</text>
  <rect x="917.7" y="185.5" width="144.3" height="181.7" rx="6" fill="#35d598"/>
  <text class="value" x="989.8" y="280.3" text-anchor="middle">61%</text>
  <rect x="917.7" y="128.0" width="144.3" height="57.5" rx="6" fill="#ffc84f"/>
  <text class="value" x="989.8" y="160.7" text-anchor="middle">19%</text>
  <text class="label" x="989.8" y="462" text-anchor="middle">6-1</text>
  <rect x="96" y="484" width="14" height="14" rx="4" fill="#278dff"/>
  <text class="legend" x="118" y="496">Greedy</text>
  <rect x="246" y="484" width="14" height="14" rx="4" fill="#35d598"/>
  <text class="legend" x="268" y="496">Heuristic</text>
  <rect x="396" y="484" width="14" height="14" rx="4" fill="#ffc84f"/>
  <text class="legend" x="418" y="496">Carry</text>
</svg>
