<svg xmlns="http://www.w3.org/2000/svg" width="1120" height="560" viewBox="0 0 1120 560" role="img" aria-labelledby="title desc">
  <title id="title">Timeline Gold per Checkpoint</title>
  <desc id="desc">Rata-rata gold setelah keputusan pembelian dari 30 simulasi.</desc>
  <defs>
    <linearGradient id="paper" x1="0" x2="1" y1="0" y2="1">
      <stop offset="0%" stop-color="#ffffff"/>
      <stop offset="100%" stop-color="#eef8ff"/>
    </linearGradient>
    <filter id="softShadow" x="-10%" y="-10%" width="120%" height="130%">
      <feDropShadow dx="0" dy="12" stdDeviation="14" flood-color="#1c468b" flood-opacity="0.13"/>
    </filter>
  </defs>
  <style>
    .bg { fill: url(#paper); }
    .title { fill: #18396f; font: 800 32px 'Segoe UI', Arial, sans-serif; }
    .subtitle { fill: #5e708e; font: 600 15px 'Segoe UI', Arial, sans-serif; }
    .axis { stroke: rgba(43, 91, 167, 0.22); stroke-width: 1; }
    .grid { stroke: rgba(43, 91, 167, 0.10); stroke-width: 1; }
    .label { fill: #31527f; font: 700 13px 'Segoe UI', Arial, sans-serif; }
    .small { fill: #5e708e; font: 600 12px 'Segoe UI', Arial, sans-serif; }
    .value { fill: #18396f; font: 800 13px 'Segoe UI', Arial, sans-serif; }
    .legend { fill: #31527f; font: 700 13px 'Segoe UI', Arial, sans-serif; }
  </style>
  <rect class="bg" width="1120" height="560" rx="22"/>
  <rect x="18" y="18" width="1084" height="524" rx="18" fill="rgba(255,255,255,0.58)" filter="url(#softShadow)"/>
  <text class="title" x="44" y="62">Timeline Gold per Checkpoint</text>
  <text class="subtitle" x="44" y="88">Rata-rata gold setelah keputusan pembelian dari 30 simulasi.</text>
  <line class="axis" x1="86" y1="126" x2="86" y2="444"/>
  <line class="axis" x1="86" y1="444" x2="1060" y2="444"/>
  <line class="grid" x1="86" y1="126.0" x2="1060" y2="126.0"/>
  <text class="small" x="74" y="130.0" text-anchor="end">499.83</text>
  <line class="grid" x1="86" y1="205.5" x2="1060" y2="205.5"/>
  <text class="small" x="74" y="209.5" text-anchor="end">374.87</text>
  <line class="grid" x1="86" y1="285.0" x2="1060" y2="285.0"/>
  <text class="small" x="74" y="289.0" text-anchor="end">249.91</text>
  <line class="grid" x1="86" y1="364.5" x2="1060" y2="364.5"/>
  <text class="small" x="74" y="368.5" text-anchor="end">124.96</text>
  <line class="grid" x1="86" y1="444.0" x2="1060" y2="444.0"/>
  <text class="small" x="74" y="448.0" text-anchor="end">0</text>
  <text class="label" x="86.0" y="478" text-anchor="middle">2-1</text>
  <text class="label" x="280.8" y="478" text-anchor="middle">2-5</text>
  <text class="label" x="475.6" y="478" text-anchor="middle">3-2</text>
  <text class="label" x="670.4" y="478" text-anchor="middle">4-1</text>
  <text class="label" x="865.2" y="478" text-anchor="middle">5-1</text>
  <text class="label" x="1060.0" y="478" text-anchor="middle">6-1</text>
  <polyline points="86.0,423.0 280.8,409.2 475.6,372.8 670.4,334.9 865.2,246.5 1060.0,153.7" fill="none" stroke="#f59e0b" stroke-width="4" stroke-linecap="round" stroke-linejoin="round"/>
  <circle cx="86.0" cy="423.0" r="5" fill="#f59e0b" stroke="#ffffff" stroke-width="2"/>
  <circle cx="280.8" cy="409.2" r="5" fill="#f59e0b" stroke="#ffffff" stroke-width="2"/>
  <circle cx="475.6" cy="372.8" r="5" fill="#f59e0b" stroke="#ffffff" stroke-width="2"/>
  <circle cx="670.4" cy="334.9" r="5" fill="#f59e0b" stroke="#ffffff" stroke-width="2"/>
  <circle cx="865.2" cy="246.5" r="5" fill="#f59e0b" stroke="#ffffff" stroke-width="2"/>
  <circle cx="1060.0" cy="153.7" r="5" fill="#f59e0b" stroke="#ffffff" stroke-width="2"/>
  <rect x="86" y="504" width="14" height="14" rx="4" fill="#f59e0b"/>
  <text class="legend" x="108" y="516">Farming / Scavenger</text>
  <polyline points="86.0,423.4 280.8,410.0 475.6,375.8 670.4,340.1 865.2,248.3 1060.0,148.0" fill="none" stroke="#22c55e" stroke-width="4" stroke-linecap="round" stroke-linejoin="round"/>
  <circle cx="86.0" cy="423.4" r="5" fill="#22c55e" stroke="#ffffff" stroke-width="2"/>
  <circle cx="280.8" cy="410.0" r="5" fill="#22c55e" stroke="#ffffff" stroke-width="2"/>
  <circle cx="475.6" cy="375.8" r="5" fill="#22c55e" stroke="#ffffff" stroke-width="2"/>
  <circle cx="670.4" cy="340.1" r="5" fill="#22c55e" stroke="#ffffff" stroke-width="2"/>
  <circle cx="865.2" cy="248.3" r="5" fill="#22c55e" stroke="#ffffff" stroke-width="2"/>
  <circle cx="1060.0" cy="148.0" r="5" fill="#22c55e" stroke="#ffffff" stroke-width="2"/>
  <rect x="276" y="504" width="14" height="14" rx="4" fill="#22c55e"/>
  <text class="legend" x="298" y="516">Stacking / Neobeasts</text>
  <polyline points="86.0,423.1 280.8,409.5 475.6,372.3 670.4,334.9 865.2,245.0 1060.0,152.6" fill="none" stroke="#278dff" stroke-width="4" stroke-linecap="round" stroke-linejoin="round"/>
  <circle cx="86.0" cy="423.1" r="5" fill="#278dff" stroke="#ffffff" stroke-width="2"/>
  <circle cx="280.8" cy="409.5" r="5" fill="#278dff" stroke="#ffffff" stroke-width="2"/>
  <circle cx="475.6" cy="372.3" r="5" fill="#278dff" stroke="#ffffff" stroke-width="2"/>
  <circle cx="670.4" cy="334.9" r="5" fill="#278dff" stroke="#ffffff" stroke-width="2"/>
  <circle cx="865.2" cy="245.0" r="5" fill="#278dff" stroke="#ffffff" stroke-width="2"/>
  <circle cx="1060.0" cy="152.6" r="5" fill="#278dff" stroke="#ffffff" stroke-width="2"/>
  <rect x="466" y="504" width="14" height="14" rx="4" fill="#278dff"/>
  <text class="legend" x="488" y="516">Normal</text>
</svg>
